<?xml version="1.0" standalone="no"?>
<!DOCTYPE svg PUBLIC "-//W3C//DTD SVG 20010904//EN"
 "http://www.w3.org/TR/2001/REC-SVG-20010904/DTD/svg10.dtd">
<svg version="1.0" xmlns="http://www.w3.org/2000/svg"
 width="484.000000pt" height="516.000000pt" viewBox="0 0 484.000000 516.000000"
 preserveAspectRatio="xMidYMid meet">
<g transform="translate(0.000000,516.000000) scale(0.100000,-0.100000)"
fill="#2E9B3A" stroke="none">
<path d="M2550 5074 c-77 -8 -183 -32 -252 -58 -85 -32 -170 -78 -167 -91 1
-5 18 -15 39 -21 74 -22 158 -98 224 -202 15 -23 58 -107 97 -185 115 -231
195 -389 223 -437 14 -25 26 -50 26 -57 0 -10 -44 -40 -146 -97 -19 -11 -34
-22 -34 -26 0 -3 161 -7 359 -9 l358 -3 30 39 c16 21 36 52 44 68 8 17 34 64
58 105 24 41 61 105 82 141 22 36 39 68 39 71 0 4 23 43 50 88 28 45 50 84 50
87 0 3 12 21 26 40 14 19 24 36 21 39 -2 2 -28 -11 -57 -31 -29 -19 -63 -38
-76 -41 -13 -3 -24 -9 -24 -13 0 -11 -79 -43 -89 -37 -5 4 -46 76 -90 161 -44
86 -95 177 -113 203 -79 114 -195 196 -343 241 -71 22 -237 34 -335 25z m193
-21 c4 -3 27 -7 51 -8 24 0 52 -7 62 -15 11 -9 15 -10 10 -2 -4 6 -2 12 3 12
6 0 11 -7 11 -15 0 -9 6 -12 15 -9 8 4 23 3 33 -2 9 -4 19 -8 22 -9 3 -2 15
-6 28 -10 12 -4 22 -11 22 -16 0 -5 7 -9 16 -9 33 0 174 -127 174 -157 0 -8 4
-12 8 -9 4 2 13 -4 20 -15 7 -11 8 -19 2 -19 -5 0 -7 -7 -3 -16 4 -10 8 -12
13 -5 3 6 14 -4 23 -25 10 -20 12 -32 6 -28 -8 4 -9 3 -5 -4 4 -7 14 -12 21
-12 9 0 12 -6 8 -17 -5 -11 -3 -14 6 -8 10 6 11 2 6 -15 -5 -17 -4 -21 6 -15
9 6 11 4 6 -8 -3 -9 0 -18 9 -21 8 -3 14 -15 14 -26 0 -11 7 -23 15 -26 8 -4
15 -10 15 -16 0 -5 -6 -6 -12 -3 -7 4 -1 -3 15 -15 15 -12 27 -28 27 -36 0
-20 37 -54 59 -54 11 0 26 7 35 15 8 8 21 15 29 15 8 0 20 7 27 15 7 8 18 15
24 15 17 0 17 -37 0 -44 -8 -3 -14 -11 -14 -18 0 -9 3 -8 10 2 13 20 13 4 -1
-21 -10 -20 -29 -17 -29 4 0 7 4 6 10 -3 5 -8 10 -10 10 -5 0 6 -4 16 -9 24
-7 11 -10 9 -16 -8 -4 -12 -2 -28 4 -35 11 -13 0 -35 -45 -83 -13 -14 -24 -34
-24 -44 0 -10 -10 -28 -22 -40 -13 -12 -17 -19 -10 -15 15 9 16 -10 1 -20 -6
-3 -19 -26 -30 -51 -10 -24 -23 -42 -29 -38 -5 3 -7 0 -4 -8 3 -8 -2 -17 -11
-21 -9 -3 -13 -10 -10 -16 3 -5 1 -10 -4 -10 -6 0 -11 -9 -11 -20 0 -11 -7
-23 -15 -26 -8 -4 -15 -14 -15 -24 0 -39 -23 -43 -184 -36 -105 5 -155 3 -158
-4 -2 -7 -42 -8 -128 -2 -78 5 -130 5 -137 -1 -9 -6 -13 -5 -13 3 0 8 -8 10
-21 7 -28 -7 -14 5 33 32 26 14 38 17 42 8 2 -7 5 -5 5 5 1 9 8 23 16 32 13
13 12 21 -16 73 -18 32 -36 62 -40 68 -5 5 -9 14 -9 20 0 5 4 4 9 -4 7 -10 9
-7 8 12 -1 14 -4 24 -7 22 -16 -10 -50 43 -50 77 0 19 -2 20 -10 8 -8 -12 -10
-10 -10 8 0 15 -4 21 -12 16 -6 -4 -8 -3 -4 4 3 6 -3 29 -15 51 -11 22 -18 45
-14 51 3 5 -1 10 -9 10 -9 0 -17 5 -17 10 -3 20 -4 25 -12 38 -5 6 -5 17 -1
24 4 7 3 8 -4 4 -7 -4 -19 9 -30 31 -11 21 -26 52 -35 68 -9 17 -14 38 -11 47
4 13 1 16 -10 12 -9 -3 -17 -1 -17 5 -1 6 -2 15 -3 20 -2 13 -113 162 -123
164 -4 1 -7 7 -7 14 1 6 -4 9 -11 7 -6 -3 -18 2 -25 11 -7 8 -18 15 -25 15 -7
0 -16 7 -19 16 -3 8 -9 13 -13 11 -5 -3 -13 1 -20 8 -10 10 -9 15 4 19 9 4 18
4 21 1 3 -3 -1 -5 -8 -5 -7 0 -11 -2 -8 -5 10 -10 37 7 32 19 -3 8 11 18 38
26 24 7 52 18 63 25 33 19 68 25 82 13 10 -8 12 -7 8 4 -3 8 0 15 7 15 7 0 30
3 50 7 22 4 39 2 43 -4 3 -5 11 -10 16 -10 6 0 8 4 4 10 -3 5 31 11 87 13 51
1 96 4 99 5 3 1 9 -1 12 -5z"/>
<path d="M2573 5033 c9 -2 23 -2 30 0 6 3 -1 5 -18 5 -16 0 -22 -2 -12 -5z"/>
<path d="M2455 5020 c-3 -5 -1 -10 4 -10 6 0 11 5 11 10 0 6 -2 10 -4 10 -3 0
-8 -4 -11 -10z"/>
<path d="M3025 4940 c3 -5 13 -10 21 -10 8 0 12 5 9 10 -3 6 -13 10 -21 10 -8
0 -12 -4 -9 -10z"/>
<path d="M3126 4877 c3 -10 9 -15 12 -12 3 3 0 11 -7 18 -10 9 -11 8 -5 -6z"/>
<path d="M3230 4720 c0 -5 5 -10 11 -10 5 0 7 5 4 10 -3 6 -8 10 -11 10 -2 0
-4 -4 -4 -10z"/>
<path d="M3305 4580 c3 -5 8 -10 11 -10 2 0 4 5 4 10 0 6 -5 10 -11 10 -5 0
-7 -4 -4 -10z"/>
<path d="M3360 4491 c0 -5 5 -13 10 -16 6 -3 10 -2 10 4 0 5 -4 13 -10 16 -5
3 -10 2 -10 -4z"/>
<path d="M3367 4449 c7 -7 15 -10 18 -7 3 3 -2 9 -12 12 -14 6 -15 5 -6 -5z"/>
<path d="M2781 4074 c0 -11 3 -14 6 -6 3 7 2 16 -1 19 -3 4 -6 -2 -5 -13z"/>
<path d="M2893 3953 c9 -2 23 -2 30 0 6 3 -1 5 -18 5 -16 0 -22 -2 -12 -5z"/>
<path d="M2698 3943 c7 -3 16 -2 19 1 4 3 -2 6 -13 5 -11 0 -14 -3 -6 -6z"/>
<path d="M2808 3933 c7 -3 16 -2 19 1 4 3 -2 6 -13 5 -11 0 -14 -3 -6 -6z"/>
<path d="M2888 3923 c7 -3 16 -2 19 1 4 3 -2 6 -13 5 -11 0 -14 -3 -6 -6z"/>
<path d="M1927 4875 c-83 -24 -110 -39 -174 -98 -60 -55 -224 -321 -372 -602
-14 -27 -34 -61 -44 -75 -9 -13 -17 -31 -17 -40 0 -9 78 -59 203 -129 333
-188 411 -234 428 -248 26 -22 43 -15 61 25 17 36 60 115 108 197 12 22 34 60
48 85 14 25 52 90 85 145 64 106 73 122 132 225 20 36 41 70 45 75 5 6 13 23
19 38 9 23 5 37 -30 103 -77 145 -160 239 -252 286 -76 38 -141 42 -240 13z
m138 -15 c-14 -6 -6 -7 23 -3 27 4 42 2 42 -5 0 -6 7 -9 15 -6 8 4 15 2 15 -3
0 -5 7 -18 16 -29 13 -16 15 -16 10 -1 -3 9 -3 17 1 17 3 0 13 -8 22 -17 9
-10 25 -23 36 -29 11 -7 19 -19 19 -28 -1 -9 2 -14 6 -11 4 2 20 -9 35 -25 19
-20 24 -30 14 -30 -9 -1 -6 -5 7 -13 12 -7 19 -18 16 -26 -3 -8 0 -11 7 -7 18
12 12 -2 -11 -25 l-23 -23 29 18 c27 17 29 17 22 1 -5 -13 -2 -16 11 -11 10 4
14 4 11 0 -4 -3 3 -25 14 -48 12 -22 21 -49 21 -58 -2 -44 -4 -49 -15 -42 -7
4 -8 3 -4 -5 4 -6 -1 -23 -12 -39 -10 -15 -22 -35 -25 -46 -4 -10 -13 -16 -20
-13 -7 3 -13 -5 -14 -21 0 -14 -8 -31 -17 -37 -9 -7 -13 -15 -9 -19 3 -3 -8
-26 -25 -50 -18 -24 -32 -47 -32 -50 0 -3 -13 -26 -29 -51 -26 -42 -30 -44
-41 -28 -10 16 -10 15 -4 -6 4 -16 3 -21 -5 -17 -7 5 -8 1 -4 -9 5 -13 7 -14
14 -3 5 7 9 8 9 2 0 -5 -9 -20 -20 -32 -12 -12 -17 -22 -13 -22 4 0 1 -6 -7
-13 -21 -17 -48 -52 -33 -43 9 5 11 2 7 -8 -3 -9 -10 -13 -15 -10 -5 3 -9 -2
-9 -11 0 -9 -4 -14 -9 -11 -4 3 -7 -6 -5 -20 1 -14 0 -23 -3 -20 -3 3 -17 -17
-30 -44 -14 -29 -29 -48 -35 -44 -7 4 -8 -1 -3 -16 5 -15 4 -20 -4 -16 -6 4
-11 0 -11 -9 0 -9 -9 -19 -21 -22 -16 -4 -17 -8 -7 -14 10 -7 10 -9 1 -9 -7 0
-22 9 -33 20 -11 11 -22 20 -25 21 -27 5 -45 13 -45 20 0 5 -7 9 -15 9 -9 0
-12 6 -9 18 5 14 4 14 -5 2 -9 -12 -14 -11 -40 8 -17 12 -35 22 -42 22 -6 0
-9 6 -6 14 4 10 -1 12 -16 9 -22 -4 -22 -4 -2 13 16 14 17 16 3 10 -52 -18
-54 -18 -33 -1 19 16 19 16 -9 9 -22 -5 -27 -4 -21 6 6 9 4 11 -4 6 -7 -5 -20
-1 -31 9 -10 9 -27 17 -39 18 -11 1 -21 4 -21 8 0 4 -21 17 -47 30 -27 12 -50
25 -53 28 -3 3 -17 12 -32 20 -26 13 -26 15 -10 28 15 13 15 13 -5 4 -37 -18
-88 13 -76 46 3 10 13 26 20 35 8 9 12 21 9 26 -3 5 1 15 9 22 8 7 15 19 15
27 0 9 6 13 14 10 11 -4 13 -1 9 10 -5 12 -3 14 8 8 12 -8 12 -6 0 8 -11 14
-11 18 3 23 9 3 16 13 16 21 0 8 5 23 11 34 9 17 13 18 26 7 15 -12 15 -11 4
9 -10 20 -9 22 6 16 16 -6 16 -5 4 10 -12 15 -9 21 12 18 4 0 7 8 7 18 0 11 7
26 15 34 8 9 24 41 36 72 15 42 25 55 36 51 10 -4 13 -2 10 8 -3 8 5 31 19 51
13 20 24 41 24 48 0 7 4 6 10 -3 8 -12 10 -11 10 8 0 12 9 31 20 42 12 12 18
25 15 30 -3 5 0 7 8 4 10 -4 15 1 14 13 -1 10 4 17 12 15 7 -1 19 2 26 8 7 6
21 8 31 4 18 -5 18 -5 1 6 -9 6 -23 8 -30 4 -8 -5 -8 -2 2 9 7 9 17 14 22 11
5 -3 9 0 9 6 0 7 9 9 23 5 15 -4 18 -3 8 3 -17 12 3 27 24 18 8 -3 15 -1 15 5
0 6 8 8 17 5 10 -4 14 -4 10 1 -13 13 54 31 113 32 40 0 50 -3 35 -9z"/>
<path d="M1988 4853 c6 -2 18 -2 25 0 6 3 1 5 -13 5 -14 0 -19 -2 -12 -5z"/>
<path d="M1740 4701 c0 -6 4 -13 10 -16 6 -3 7 1 4 9 -7 18 -14 21 -14 7z"/>
<path d="M1580 4461 c0 -6 4 -13 10 -16 6 -3 7 1 4 9 -7 18 -14 21 -14 7z"/>
<path d="M2331 4394 c0 -11 3 -14 6 -6 3 7 2 16 -1 19 -3 4 -6 -2 -5 -13z"/>
<path d="M1421 4164 c0 -11 3 -14 6 -6 3 7 2 16 -1 19 -3 4 -6 -2 -5 -13z"/>
<path d="M2022 3829 c-19 -30 -8 -34 12 -4 9 14 13 25 9 25 -5 0 -14 -9 -21
-21z"/>
<path d="M3800 4023 c0 -52 -48 -183 -99 -270 -43 -76 -166 -196 -277 -273
-12 -8 -57 -39 -100 -69 -344 -238 -538 -444 -601 -639 -37 -114 -37 -273 0
-393 29 -94 60 -166 108 -249 40 -70 110 -170 119 -170 4 0 13 -11 20 -25 7
-14 18 -25 25 -25 15 0 145 127 221 215 189 219 314 521 329 794 2 47 2 78 -1
68 -3 -9 -9 -15 -14 -12 -5 3 -7 -6 -4 -20 2 -14 -3 -61 -11 -104 -9 -43 -15
-82 -14 -87 1 -5 0 -16 -4 -24 -3 -8 -11 -39 -16 -69 -6 -29 -20 -66 -31 -81
-11 -15 -17 -30 -13 -33 3 -4 -2 -18 -11 -31 -8 -14 -13 -32 -10 -41 4 -11 2
-14 -9 -9 -10 4 -15 0 -14 -13 1 -9 -3 -18 -10 -18 -6 0 -15 -4 -20 -9 -5 -5
-3 -6 5 -2 10 6 13 1 10 -20 -2 -17 -8 -28 -16 -26 -6 1 -11 -1 -11 -5 4 -25
-3 -43 -17 -43 -10 0 -14 -5 -10 -16 3 -8 2 -12 -4 -9 -6 3 -10 -3 -10 -14 0
-12 -4 -21 -10 -21 -5 0 -10 -6 -10 -14 0 -8 -7 -16 -15 -20 -8 -3 -15 -10
-15 -17 0 -15 -36 -60 -43 -53 -3 3 -14 1 -24 -6 -15 -10 -16 -11 -1 -6 28 9
31 -13 4 -24 -16 -6 -26 -17 -26 -29 0 -28 -16 -34 -36 -14 -17 17 -18 17 -11
0 4 -10 7 -21 7 -23 0 -3 5 -2 12 2 7 4 8 3 4 -4 -4 -7 -13 -12 -19 -12 -7 0
-18 -9 -25 -21 -8 -12 -19 -18 -28 -15 -10 4 -12 2 -8 -6 5 -8 2 -9 -10 -5
-14 6 -15 4 -5 -16 6 -12 8 -19 5 -15 -8 7 -45 -23 -40 -32 1 -3 -6 -6 -16 -6
-11 0 -17 2 -15 4 2 2 -6 15 -18 28 -36 38 -47 53 -47 62 0 5 -7 15 -15 22 -9
7 -14 19 -11 26 3 7 -2 15 -10 18 -8 3 -14 9 -13 13 3 18 -1 36 -7 30 -4 -4
-15 9 -25 28 -21 39 -23 49 -10 40 5 -3 12 -1 15 4 3 5 -3 11 -14 14 -12 3
-20 -1 -23 -12 -4 -14 -11 33 -10 66 0 7 -4 11 -10 10 -7 -1 -13 8 -15 21 -2
12 -7 22 -12 22 -4 0 -10 6 -13 14 -5 11 1 13 28 9 27 -4 35 -1 45 17 10 18 9
24 -7 35 -21 16 -33 11 -32 -13 0 -11 3 -12 6 -4 6 16 23 15 23 -2 0 -16 -27
-29 -41 -20 -5 3 -9 18 -9 34 0 23 5 31 25 36 35 9 55 -11 56 -55 l1 -36 10
28 c8 22 6 33 -7 53 -22 35 -83 31 -102 -6 l-13 -25 0 33 c0 28 5 35 33 48 30
14 10 14 -24 0 -14 -6 -15 -1 -12 33 2 25 0 41 -7 41 -5 0 -10 9 -10 21 0 11
4 17 10 14 6 -3 7 1 4 9 -3 9 0 48 7 88 15 80 16 86 19 108 1 9 6 5 11 -10 8
-22 8 -21 4 7 -2 18 0 35 5 38 6 4 16 21 24 38 7 18 29 48 49 69 21 20 37 40
37 45 0 4 -5 1 -10 -7 -5 -8 -10 -10 -10 -4 0 16 25 35 34 27 4 -4 4 0 0 10
-4 12 -2 16 8 12 8 -3 21 1 28 10 8 10 9 15 1 15 -6 0 -11 -5 -11 -12 0 -6 -3
-8 -6 -5 -11 11 18 38 33 33 8 -3 11 -1 8 4 -3 6 0 13 8 16 8 3 17 14 20 25 4
13 10 17 23 12 13 -5 16 -3 11 10 -3 9 -2 19 3 22 6 4 10 0 10 -7 0 -8 5 -6
11 5 7 12 17 16 32 11 22 -6 22 -6 2 10 -17 13 -18 15 -3 16 9 0 19 6 21 13 4
9 8 8 17 -3 9 -12 10 -11 5 7 -7 24 19 44 45 35 13 -5 13 -3 0 13 -9 11 -10
16 -2 11 7 -4 12 -2 12 4 0 6 4 9 10 5 5 -3 7 -13 4 -23 -5 -15 -5 -15 6 1 6
9 8 22 5 27 -3 6 -2 10 2 10 5 0 21 11 36 25 15 14 27 22 27 17 0 -5 7 -9 15
-9 11 0 12 4 4 13 -12 15 17 34 41 27 12 -4 13 -3 1 5 -11 8 -9 12 9 22 15 8
20 8 16 1 -4 -6 -3 -11 2 -11 5 0 12 9 15 21 5 18 8 19 27 9 13 -7 20 -8 16
-2 -3 6 4 18 16 28 20 14 20 16 3 10 -16 -6 -18 -5 -7 6 7 7 17 14 23 14 5 1
14 2 20 3 5 0 8 5 5 10 -3 5 5 11 19 13 14 3 25 1 25 -5 0 -6 3 -7 6 -4 4 4 1
15 -7 24 -7 10 -10 15 -5 11 5 -4 22 6 40 23 17 16 36 27 42 25 8 -3 10 3 6
17 -3 12 -2 19 3 15 9 -8 35 15 35 31 0 6 5 11 11 11 6 0 8 -7 5 -16 -3 -9 -2
-12 5 -9 6 4 8 13 5 21 -3 8 -1 14 4 14 6 0 10 7 10 15 0 8 4 15 8 15 5 0 15
11 22 25 7 13 17 22 22 19 5 -3 8 -2 7 3 -3 20 2 33 14 31 6 -2 11 5 9 14 -1
9 2 19 8 23 5 3 10 17 10 30 0 13 5 27 10 30 6 4 8 10 6 14 -3 4 0 13 5 21 8
13 10 13 19 0 7 -11 8 -3 5 25 -2 22 -2 32 1 23 3 -10 9 -18 13 -18 4 0 8 -6
9 -12 1 -7 3 -23 4 -35 2 -12 10 -30 18 -40 9 -10 17 -22 19 -28 2 -5 12 -28
22 -50 10 -22 20 -57 22 -77 2 -21 7 -41 12 -45 4 -5 5 -1 0 7 -6 12 -5 12 5
3 15 -13 5 -87 -10 -78 -6 3 -7 -1 -3 -11 5 -14 8 -13 19 7 12 24 12 24 22
-11 10 -38 6 -53 -8 -30 -6 9 -10 10 -10 3 0 -6 8 -18 18 -25 9 -7 18 -18 19
-25 5 -22 14 -88 18 -123 2 -19 8 -50 14 -68 5 -18 7 -49 5 -70 -4 -28 -3 -33
5 -22 9 13 11 13 11 -2 0 -9 -4 -28 -10 -43 -5 -14 -6 -24 -1 -21 4 3 11 -36
14 -87 6 -90 -12 -268 -33 -327 -4 -14 -11 -38 -15 -55 -11 -53 -27 -86 -41
-81 -10 4 -11 -1 -4 -19 9 -24 -1 -42 -17 -32 -5 3 -8 -8 -9 -24 -1 -16 -9
-37 -18 -47 -9 -10 -13 -22 -9 -25 3 -4 1 -7 -5 -7 -15 0 -44 -55 -34 -65 4
-3 0 -5 -8 -3 -8 1 -14 -1 -15 -7 -1 -18 -29 -55 -41 -55 -7 0 -15 -8 -18 -17
-5 -12 -9 -14 -18 -5 -7 7 -16 12 -22 12 -5 0 -2 -6 9 -13 18 -14 14 -37 -6
-37 -6 0 -7 5 -4 10 3 6 2 10 -4 10 -16 0 -23 -18 -9 -22 19 -7 -13 -35 -36
-32 -10 1 -15 0 -12 -3 11 -11 -15 -32 -32 -26 -13 4 -14 3 -3 -5 17 -12 -1
-24 -26 -16 -12 4 -14 3 -5 -3 9 -7 -1 -16 -34 -34 -76 -40 -86 -47 -94 -60
-5 -6 -22 -12 -39 -11 -18 0 -30 -4 -28 -11 1 -6 -11 -14 -28 -18 -16 -4 -25
-8 -20 -9 6 -1 -3 -6 -20 -11 -18 -5 -31 -5 -35 2 -4 6 -12 4 -20 -6 -7 -8
-16 -15 -21 -15 -15 0 -10 30 6 36 8 4 15 12 15 20 0 8 5 14 11 14 5 0 7 6 3
13 -5 7 -2 7 10 -2 9 -8 16 -10 15 -5 -4 22 2 44 12 44 6 0 8 -9 4 -22 -5 -20
-4 -21 5 -6 8 13 8 23 0 38 -8 15 -8 20 2 18 6 -2 12 4 13 12 2 34 29 71 47
66 15 -3 17 -1 9 8 -11 13 6 76 21 76 4 0 8 7 8 15 0 21 32 85 43 85 5 0 7 6
4 13 -3 8 3 32 12 53 10 22 21 57 25 79 10 58 17 76 25 71 4 -3 13 0 21 6 12
8 12 9 -2 4 -23 -7 -23 10 -3 129 24 138 26 190 10 227 l-14 33 -1 -63 c0 -66
-20 -213 -44 -329 -48 -225 -192 -508 -337 -661 -23 -23 -37 -42 -32 -42 20 0
232 80 298 112 164 80 306 192 406 318 67 86 145 250 168 355 8 33 18 76 23
95 15 60 21 290 10 395 -27 247 -80 447 -189 720 -62 154 -73 174 -73 128z
m70 -157 c0 -3 -4 -8 -10 -11 -5 -3 -10 -1 -10 4 0 6 5 11 10 11 6 0 10 -2 10
-4z m-470 -436 c0 -5 -5 -10 -11 -10 -5 0 -7 5 -4 10 3 6 8 10 11 10 2 0 4 -4
4 -10z"/>
<path d="M3876 3757 c3 -10 9 -15 12 -12 3 3 0 11 -7 18 -10 9 -11 8 -5 -6z"/>
<path d="M854 3718 c10 -7 60 -39 110 -72 50 -32 95 -62 99 -66 9 -8 -9 -44
-64 -130 -174 -268 -217 -402 -190 -592 13 -91 71 -250 106 -288 8 -9 15 -20
15 -23 0 -9 80 -117 132 -179 51 -60 146 -137 206 -167 24 -12 45 -21 47 -19
1 2 -2 29 -8 60 -8 43 -7 76 2 127 19 104 50 163 216 412 38 57 74 112 80 121
5 9 30 50 55 90 25 40 51 84 58 98 6 14 23 38 36 54 l23 30 87 -44 c47 -24 86
-47 86 -52 0 -4 6 -8 14 -8 10 0 3 20 -24 63 -22 34 -61 100 -87 147 -83 148
-172 305 -180 315 -4 6 -21 36 -38 68 l-30 57 -367 0 c-201 0 -375 2 -385 5
-17 6 -17 5 1 -7z m736 -28 c9 -1 11 -3 3 -6 -8 -4 -7 -11 5 -23 9 -10 21 -16
26 -13 5 3 6 -8 3 -24 -3 -16 -4 -23 -1 -16 8 18 24 4 17 -15 -4 -11 -3 -14 5
-9 8 5 14 -3 18 -23 4 -18 11 -28 17 -24 6 4 8 -2 5 -15 -4 -12 -2 -20 3 -17
4 3 16 -9 25 -27 9 -18 25 -44 35 -57 20 -25 25 -46 9 -36 -5 3 -7 0 -4 -9 3
-8 12 -12 20 -9 10 4 12 0 7 -13 -4 -11 -3 -15 5 -10 7 4 14 -4 18 -21 3 -15
12 -33 19 -38 7 -6 20 -27 28 -46 8 -20 23 -46 33 -57 24 -28 27 -53 6 -44
-10 4 -12 7 -4 10 7 2 9 8 6 13 -3 6 -11 5 -20 -2 -11 -9 -14 -8 -14 5 0 10
-4 14 -10 11 -5 -3 -10 -3 -10 2 0 4 -17 9 -38 10 -34 2 -40 -2 -70 -45 -17
-25 -32 -42 -32 -36 0 5 7 20 16 32 8 12 11 22 6 22 -12 0 -36 -56 -29 -68 5
-7 -6 -24 -53 -80 -6 -7 -9 -16 -6 -21 3 -5 -1 -12 -10 -15 -12 -5 -15 -2 -10
9 3 10 2 13 -5 10 -5 -4 -7 -16 -3 -27 3 -11 2 -23 -4 -27 -6 -3 -12 -13 -14
-21 -4 -19 -24 -40 -37 -40 -5 0 -13 -10 -17 -22 -4 -13 -14 -28 -23 -35 -12
-9 -13 -12 -2 -13 8 0 -2 -17 -23 -40 -20 -22 -36 -45 -36 -51 0 -6 -7 -17
-15 -26 -8 -8 -12 -19 -9 -25 4 -6 -3 -5 -16 2 -20 11 -21 10 -10 -9 8 -16 7
-26 -6 -46 -9 -14 -22 -24 -29 -21 -7 2 -12 -7 -12 -26 0 -18 -7 -34 -16 -40
-9 -5 -17 -17 -17 -28 0 -10 -7 -25 -15 -33 -8 -8 -12 -16 -10 -18 2 -2 -1
-27 -6 -54 -14 -70 -16 -125 -4 -126 6 0 4 -3 -3 -6 -10 -4 -10 -8 -1 -19 9
-11 7 -14 -14 -14 -16 0 -31 8 -37 20 -6 11 -14 19 -18 16 -4 -2 -16 2 -27 10
-10 8 -14 14 -9 14 6 0 16 -6 24 -12 12 -11 12 -10 1 5 -7 9 -20 17 -28 17 -8
0 -11 5 -7 12 5 8 2 9 -10 5 -10 -4 -15 -3 -11 3 3 5 -7 17 -22 26 -44 28 -75
64 -69 80 3 9 2 12 -4 9 -14 -9 -49 36 -42 54 3 8 1 12 -5 8 -10 -6 -37 25
-42 48 -1 6 -9 14 -17 18 -8 4 -14 13 -14 20 0 7 4 6 10 -3 11 -17 13 -10 4
14 -3 8 -11 13 -18 10 -15 -6 -30 51 -19 69 4 6 0 8 -10 4 -9 -3 -16 -3 -15 1
1 4 -4 17 -11 30 -7 13 -10 30 -7 38 3 9 1 12 -4 9 -10 -6 -15 21 -11 63 1 13
-2 21 -8 18 -5 -3 -7 3 -4 14 3 11 1 26 -4 33 -5 6 -8 39 -7 72 2 33 3 66 4
73 0 7 4 10 10 7 6 -4 7 6 4 24 -4 18 -2 37 5 45 6 7 9 20 6 27 -6 18 39 105
53 102 6 -2 9 4 6 12 -3 7 -1 22 5 32 10 16 10 15 8 -6 -1 -14 4 -26 13 -28
11 -3 12 -2 3 4 -9 6 -10 18 -4 40 5 17 7 33 5 35 -2 3 10 17 26 33 17 16 30
36 30 45 0 9 7 25 15 36 16 21 20 12 6 -15 -7 -13 -6 -18 3 -18 9 0 12 12 10
33 -1 20 5 43 15 56 10 13 22 33 26 46 4 14 12 21 20 18 9 -3 12 0 8 9 -3 8
-9 12 -14 9 -5 -3 -9 2 -9 10 0 9 -5 16 -11 16 -6 0 -9 7 -6 14 4 11 1 13 -10
9 -11 -4 -14 -2 -9 5 4 7 2 10 -7 7 -12 -5 -67 33 -67 47 0 4 8 8 17 10 15 3
568 1 603 -2z"/>
<path d="M1338 3663 c7 -3 16 -2 19 1 4 3 -2 6 -13 5 -11 0 -14 -3 -6 -6z"/>
<path d="M1418 3663 c7 -3 16 -2 19 1 4 3 -2 6 -13 5 -11 0 -14 -3 -6 -6z"/>
<path d="M1018 3653 c7 -3 16 -2 19 1 4 3 -2 6 -13 5 -11 0 -14 -3 -6 -6z"/>
<path d="M1775 3320 c11 -14 21 -27 22 -29 2 -2 3 6 3 19 0 13 -3 20 -7 17 -3
-4 -13 -1 -22 5 -10 8 -8 3 4 -12z"/>
<path d="M1527 2902 c3 -7 9 -10 12 -5 3 4 10 11 15 15 4 4 -1 6 -12 5 -12 -1
-18 -6 -15 -15z"/>
<path d="M1361 2665 c-1 -14 12 -30 26 -32 7 -2 10 4 7 12 -4 8 -10 13 -14 10
-5 -3 -11 1 -13 7 -3 7 -6 9 -6 3z"/>
<path d="M1290 2511 c0 -6 4 -13 10 -16 6 -3 7 1 4 9 -7 18 -14 21 -14 7z"/>
<path d="M1070 2412 c0 -5 7 -15 15 -22 8 -7 15 -8 15 -2 0 5 -7 15 -15 22 -8
7 -15 8 -15 2z"/>
<path d="M1145 2350 c3 -4 14 -10 25 -13 11 -3 18 -2 15 3 -3 4 -14 10 -25 13
-11 3 -18 2 -15 -3z"/>
<path d="M2999 3093 c-11 -15 -11 -16 1 -5 18 15 34 16 24 0 -4 -7 -3 -8 5 -4
12 8 6 26 -8 26 -5 0 -15 -8 -22 -17z"/>
<path d="M2951 3027 c-1 -11 -6 -15 -13 -11 -7 5 -8 3 -3 -5 10 -16 29 2 22
21 -4 8 -6 7 -6 -5z"/>
<path d="M3462 2740 c0 -14 2 -19 5 -12 2 6 2 18 0 25 -3 6 -5 1 -5 -13z"/>
<path d="M380 2715 c-10 -12 -11 -50 -7 -153 10 -233 26 -277 198 -573 l89
-154 0 61 c0 154 -28 412 -56 524 -22 88 -86 210 -137 263 -49 50 -67 56 -87
32z m60 -44 c0 -4 10 -13 23 -20 13 -7 29 -21 36 -33 7 -11 8 -17 2 -14 -6 4
2 -12 17 -35 15 -22 27 -46 27 -52 0 -7 9 -29 20 -50 16 -32 17 -41 6 -59 -11
-18 -11 -20 2 -15 16 6 17 4 32 -88 4 -22 10 -96 14 -165 4 -69 11 -134 15
-145 7 -17 6 -17 -4 -5 -9 12 -11 10 -6 -12 3 -14 9 -34 12 -45 5 -15 4 -15
-7 2 -7 11 -15 22 -19 25 -11 9 -55 104 -53 117 0 7 -3 11 -7 8 -11 -7 -82
134 -73 147 3 6 1 8 -5 4 -13 -8 -26 28 -24 69 1 29 1 29 -7 5 -7 -24 -8 -24
-15 10 -29 143 -44 366 -24 354 8 -5 9 -1 5 10 -6 14 -3 15 13 6 11 -6 20 -14
20 -19z"/>
<path d="M596 2017 c3 -10 9 -15 12 -12 3 3 0 11 -7 18 -10 9 -11 8 -5 -6z"/>
<path d="M3581 2714 c0 -11 3 -14 6 -6 3 7 2 16 -1 19 -3 4 -6 -2 -5 -13z"/>
<path d="M4421 2703 c-81 -70 -142 -201 -171 -369 -21 -123 -40 -330 -40 -433
l1 -66 16 30 c9 17 35 62 58 100 55 91 93 162 143 260 33 66 43 100 56 195 9
63 16 147 15 185 -2 125 -20 148 -78 98z m51 -55 c7 -61 2 -143 -13 -218 -7
-36 -12 -78 -12 -95 1 -16 -1 -24 -4 -17 -10 25 -22 11 -18 -22 3 -22 -1 -40
-10 -49 -8 -8 -11 -17 -8 -21 4 -3 1 -6 -5 -6 -6 0 -16 -18 -22 -40 -6 -22
-19 -46 -29 -52 -11 -7 -17 -18 -13 -26 4 -11 1 -13 -8 -7 -10 6 -12 4 -7 -8
3 -9 1 -17 -4 -19 -6 -2 -11 -10 -13 -18 -4 -30 -29 -58 -45 -52 -14 5 -14 4
-2 -11 15 -19 10 -30 -15 -33 -10 -2 -13 3 -9 16 3 11 8 65 9 122 2 59 8 104
14 106 6 2 8 10 5 18 -3 7 0 35 6 61 15 64 19 92 20 128 1 21 4 26 10 16 6 -9
11 4 17 40 4 30 8 56 9 59 3 17 41 77 54 87 9 6 13 15 9 19 -7 7 57 64 72 64
4 0 10 -19 12 -42z"/>
<path d="M4350 2159 c0 -5 5 -7 10 -4 6 3 10 8 10 11 0 2 -4 4 -10 4 -5 0 -10
-5 -10 -11z"/>
<path d="M4260 2031 c0 -6 4 -13 10 -16 6 -3 7 1 4 9 -7 18 -14 21 -14 7z"/>
<path d="M1488 2658 c-33 -45 -111 -201 -133 -267 -22 -66 -22 -161 -1 -220
34 -93 127 -188 224 -230 79 -33 183 -41 549 -41 l333 0 -6 393 -6 392 -468 3
-467 2 -25 -32z m662 2 c8 0 70 1 138 2 103 3 122 1 122 -12 0 -13 1 -13 10 0
7 11 10 6 10 -20 0 -28 -3 -32 -11 -20 -9 12 -9 11 -3 -5 5 -11 9 -111 10
-221 1 -111 5 -211 9 -223 3 -11 2 -21 -3 -21 -6 0 -9 -8 -7 -17 2 -10 6 -53
9 -96 4 -57 3 -76 -6 -71 -7 5 -9 1 -6 -12 5 -18 1 -19 -53 -14 -31 3 -55 2
-53 -2 3 -4 1 -8 -5 -8 -5 0 -13 5 -16 10 -3 6 -17 10 -31 10 -13 0 -24 -4
-24 -10 0 -6 -33 -9 -82 -8 l-83 2 75 7 c42 4 4 4 -85 2 -88 -3 -173 -5 -190
-4 -16 1 -66 3 -110 4 -44 2 -86 6 -93 11 -7 4 -12 2 -13 -6 0 -10 -2 -10 -6
0 -2 6 -11 12 -19 12 -8 0 -23 5 -34 10 -11 5 -29 15 -40 20 -11 6 -27 10 -35
10 -18 0 -18 4 -4 33 10 21 9 21 -5 3 -18 -23 -33 -14 -76 46 -15 21 -30 35
-34 33 -3 -3 -4 -2 -1 1 2 4 0 15 -5 25 -6 10 -11 30 -12 44 -1 14 -7 24 -14
21 -6 -2 -11 1 -11 8 0 6 -3 25 -7 41 -5 22 -4 26 4 15 8 -13 10 -13 10 2 0 9
-5 20 -10 23 -6 4 -8 11 -5 16 3 5 13 35 21 66 18 71 63 165 75 157 5 -3 6 1
4 8 -3 8 3 31 14 53 11 22 21 36 22 30 0 -5 4 1 8 15 5 17 16 27 36 31 23 5
531 4 615 -1z"/>
<path d="M1501 2554 c0 -11 3 -14 6 -6 3 7 2 16 -1 19 -3 4 -6 -2 -5 -13z"/>
<path d="M1603 2315 c0 -33 2 -45 4 -27 2 18 2 45 0 60 -2 15 -4 0 -4 -33z"/>
<path d="M1573 2305 c0 -22 2 -30 4 -17 2 12 2 30 0 40 -3 9 -5 -1 -4 -23z"/>
<path d="M1700 2285 c-19 -23 -8 -25 14 -4 11 11 15 19 9 19 -6 0 -16 -7 -23
-15z"/>
<path d="M1855 2293 c11 -3 26 -10 33 -15 8 -7 12 -7 12 0 0 12 -25 22 -48 21
-13 -1 -12 -3 3 -6z"/>
<path d="M2028 2293 c6 -2 18 -2 25 0 6 3 1 5 -13 5 -14 0 -19 -2 -12 -5z"/>
<path d="M2275 2280 c3 -5 8 -10 11 -10 2 0 4 5 4 10 0 6 -5 10 -11 10 -5 0
-7 -4 -4 -10z"/>
<path d="M1806 2265 c-9 -26 -7 -32 5 -12 6 10 9 21 6 23 -2 3 -7 -2 -11 -11z"/>
<path d="M2186 2272 c-6 -10 -6 -115 0 -109 6 6 15 117 9 117 -2 0 -6 -4 -9
-8z"/>
<path d="M2363 2240 c0 -25 2 -35 4 -22 2 12 2 32 0 45 -2 12 -4 2 -4 -23z"/>
<path d="M2103 2210 c0 -30 2 -43 4 -27 2 15 2 39 0 55 -2 15 -4 2 -4 -28z"/>
<path d="M1492 2230 c0 -14 2 -19 5 -12 2 6 2 18 0 25 -3 6 -5 1 -5 -13z"/>
<path d="M1601 2234 c0 -11 3 -14 6 -6 3 7 2 16 -1 19 -3 4 -6 -2 -5 -13z"/>
<path d="M2242 2225 c0 -16 2 -22 5 -12 2 9 2 23 0 30 -3 6 -5 -1 -5 -18z"/>
<path d="M2300 2220 c0 -16 4 -30 8 -30 5 0 7 14 4 30 -2 17 -6 30 -8 30 -2 0
-4 -13 -4 -30z"/>
<path d="M1440 2233 c0 -4 5 -15 10 -23 8 -13 10 -13 10 2 0 9 -4 20 -10 23
-5 3 -10 3 -10 -2z"/>
<path d="M1980 2230 c0 -5 5 -10 11 -10 5 0 7 5 4 10 -3 6 -8 10 -11 10 -2 0
-4 -4 -4 -10z"/>
<path d="M2071 2224 c0 -11 3 -14 6 -6 3 7 2 16 -1 19 -3 4 -6 -2 -5 -13z"/>
<path d="M2132 2220 c0 -14 2 -19 5 -12 2 6 2 18 0 25 -3 6 -5 1 -5 -13z"/>
<path d="M2390 2194 c0 -14 4 -23 9 -20 5 3 7 15 4 26 -7 28 -13 25 -13 -6z"/>
<path d="M1880 2198 c0 -5 9 -8 19 -8 11 0 22 3 24 8 3 4 -6 7 -19 7 -13 0
-24 -3 -24 -7z"/>
<path d="M2066 2185 c4 -8 8 -15 10 -15 2 0 4 7 4 15 0 8 -4 15 -10 15 -5 0
-7 -7 -4 -15z"/>
<path d="M2361 2174 c0 -11 3 -14 6 -6 3 7 2 16 -1 19 -3 4 -6 -2 -5 -13z"/>
<path d="M1651 2164 c0 -11 3 -14 6 -6 3 7 2 16 -1 19 -3 4 -6 -2 -5 -13z"/>
<path d="M1838 2168 c5 -5 16 -8 23 -6 8 3 3 7 -10 11 -17 4 -21 3 -13 -5z"/>
<path d="M1898 2163 c7 -3 16 -2 19 1 4 3 -2 6 -13 5 -11 0 -14 -3 -6 -6z"/>
<path d="M2395 2149 c-4 -6 -5 -12 -2 -15 2 -3 7 2 10 11 7 17 1 20 -8 4z"/>
<path d="M1543 2133 c9 -2 23 -2 30 0 6 3 -1 5 -18 5 -16 0 -22 -2 -12 -5z"/>
<path d="M1883 2133 c9 -2 23 -2 30 0 6 3 -1 5 -18 5 -16 0 -22 -2 -12 -5z"/>
<path d="M4768 2602 c-16 -2 -28 -8 -28 -13 0 -5 -6 -9 -14 -9 -17 0 -64 -57
-124 -150 -51 -80 -54 -85 -150 -242 -34 -57 -67 -110 -72 -118 -8 -14 -124
-207 -153 -255 -7 -11 -25 -40 -41 -65 -16 -25 -51 -81 -78 -124 -28 -43 -54
-84 -59 -90 -5 -6 -33 -42 -62 -81 -93 -123 -262 -248 -422 -311 -98 -40 -230
-59 -329 -49 -75 7 -98 15 -133 48 -46 41 -19 139 59 217 24 24 42 47 40 52
-1 5 2 7 8 3 6 -4 17 -2 24 4 27 23 144 74 264 117 260 93 337 132 373 191 26
42 16 74 -32 99 -91 47 -428 -27 -777 -170 -154 -63 -239 -107 -333 -172 -101
-69 -119 -84 -204 -170 -94 -94 -119 -125 -170 -203 -139 -215 -200 -399 -226
-690 -10 -104 -9 -150 4 -264 13 -122 26 -171 41 -156 2 2 0 27 -5 54 -22 115
-25 188 -17 355 7 136 16 190 29 190 5 0 9 23 9 51 0 27 4 48 9 45 5 -4 7 4 3
16 -3 14 -2 19 6 14 7 -4 12 -3 12 3 0 5 -5 13 -10 16 -6 4 -8 11 -4 16 3 5
10 6 16 3 8 -5 9 -1 5 10 -10 25 83 243 97 229 3 -4 6 0 6 8 0 20 23 69 33 69
4 0 7 5 7 11 0 14 56 79 63 73 3 -3 4 3 4 13 -1 10 4 17 10 15 8 -1 13 8 13
20 0 19 2 20 11 8 8 -12 9 -11 7 5 -2 13 2 19 12 17 8 -2 12 -1 8 3 -10 10
110 127 122 120 6 -4 9 -1 8 7 -2 7 3 12 10 10 6 -1 12 5 12 14 0 11 6 14 23
9 14 -4 18 -3 9 3 -11 7 -11 11 0 20 7 5 20 12 28 14 8 2 23 13 33 26 10 12
25 22 33 22 8 0 14 5 14 10 0 6 11 10 25 10 14 0 25 5 25 10 0 6 9 10 21 10
11 0 18 4 15 8 -3 5 10 15 29 22 19 8 35 17 35 22 0 4 7 5 15 2 8 -4 15 -1 15
6 0 7 8 10 19 7 12 -3 22 1 25 10 3 8 10 11 16 8 5 -3 10 -1 10 4 0 6 18 11
40 11 32 0 38 3 33 16 -5 13 -2 15 15 9 13 -4 22 -2 22 4 0 6 7 7 17 4 12 -5
14 -3 8 7 -6 10 -4 12 8 7 10 -3 17 -3 17 1 0 5 24 14 53 21 28 8 57 18 64 23
7 5 20 7 30 4 10 -3 32 2 48 9 25 12 26 14 5 9 -14 -4 -31 -9 -37 -11 -7 -3
-13 -1 -13 4 0 11 29 16 97 17 29 0 47 4 40 8 -18 11 -9 14 93 32 175 30 256
27 282 -9 11 -15 10 -27 -2 -20 -6 4 -7 -1 -3 -11 5 -13 3 -15 -7 -9 -10 6
-12 4 -7 -8 4 -11 -2 -22 -16 -32 -28 -19 -43 -19 -27 0 16 19 3 19 -16 0 -9
-8 -11 -15 -5 -15 25 0 8 -17 -39 -38 -28 -13 -55 -20 -62 -16 -7 4 -8 3 -4
-4 4 -7 1 -12 -6 -12 -7 0 -40 -11 -73 -25 -33 -13 -70 -25 -82 -25 -13 0 -23
-5 -23 -11 0 -6 -7 -8 -16 -5 -8 3 -13 2 -10 -3 7 -10 -60 -25 -74 -16 -6 3
-10 2 -10 -4 0 -6 -11 -13 -25 -17 -14 -3 -25 -10 -25 -15 0 -12 -52 -35 -86
-38 -8 0 -13 -5 -10 -9 3 -4 -12 -17 -32 -27 -43 -23 -87 -68 -103 -108 -8
-20 -14 -24 -20 -16 -4 8 -10 -2 -14 -27 -3 -21 -8 -48 -10 -58 -5 -24 16 -76
38 -94 9 -8 14 -19 11 -25 -5 -14 52 -21 186 -20 143 0 232 7 212 16 -10 4 -4
5 15 2 23 -3 32 -1 30 8 -1 7 7 11 20 9 12 -2 24 1 27 7 9 13 94 53 103 48 5
-2 17 -1 28 4 18 7 18 8 -5 9 -25 0 -25 1 5 15 17 8 43 26 59 40 31 26 41 31
31 15 -3 -5 -1 -10 4 -10 6 0 11 9 11 20 0 11 5 20 10 20 6 0 20 11 32 25 12
14 28 23 36 20 7 -2 11 -1 8 4 -3 5 11 23 31 40 20 17 32 31 28 31 -5 0 8 15
27 33 20 17 38 41 40 52 2 11 11 19 20 19 10 -1 14 4 11 12 -5 15 36 76 48 69
4 -3 5 4 2 15 -3 11 0 20 6 20 6 0 11 7 11 16 0 9 5 12 12 8 7 -5 9 -2 6 8 -4
9 4 22 18 33 14 10 23 24 20 32 -3 7 0 12 7 10 7 -1 11 6 11 15 -1 10 2 16 6
13 4 -3 11 6 14 20 4 14 11 25 16 25 6 0 10 9 10 20 0 10 9 24 20 30 11 6 20
15 20 21 0 6 -6 7 -12 3 -9 -5 -8 -2 1 10 11 13 16 14 23 4 6 -8 7 -5 3 11 -5
17 -4 22 5 16 9 -5 11 -4 6 3 -8 14 44 94 75 115 14 10 16 16 8 19 -10 3 -7
12 9 33 12 15 22 24 22 20 0 -4 7 -2 15 5 10 8 12 17 6 28 -7 12 -2 24 19 43
15 15 26 29 24 32 -7 7 18 57 28 57 11 0 10 -7 -3 -33 -10 -20 -10 -21 4 -7 9
8 18 32 20 53 2 20 18 60 36 88 17 28 31 55 31 60 0 6 5 7 10 4 6 -4 10 -3 9
2 -3 20 2 27 12 13 8 -12 9 -10 4 8 -6 22 -5 23 16 17 21 -7 22 -6 10 9 -8 9
-10 20 -6 24 4 4 10 1 12 -5 7 -21 22 -15 16 6 -3 11 0 28 7 38 11 17 11 17 5
-2 -6 -18 -5 -18 15 3 11 12 24 23 28 23 32 6 53 5 58 -3 6 -9 24 -1 24 11 0
13 -43 27 -72 23z m-313 -472 c3 -5 1 -10 -4 -10 -6 0 -11 5 -11 10 0 6 2 10
4 10 3 0 8 -4 11 -10z m-860 -1000 c-3 -5 -12 -10 -18 -10 -7 0 -6 4 3 10 19
12 23 12 15 0z"/>
<path d="M24 2575 c-29 -44 -15 -115 53 -260 34 -71 86 -193 116 -270 122
-313 137 -353 165 -420 127 -307 260 -481 532 -698 174 -139 309 -214 615
-343 261 -110 334 -143 447 -200 47 -24 91 -44 97 -44 7 0 11 23 11 59 0 81
44 313 76 401 52 144 186 386 238 429 26 22 19 45 -26 87 -37 33 -66 57 -178
147 -73 59 -199 125 -364 192 -360 146 -692 219 -785 170 -48 -24 -49 -84 -3
-128 39 -37 170 -99 302 -142 141 -47 261 -98 318 -137 32 -22 47 -27 55 -19
8 8 7 11 -5 11 -9 0 -15 8 -14 18 1 11 -5 16 -18 14 -13 -3 -17 1 -13 11 4 11
0 13 -16 10 -18 -4 -20 -3 -7 7 13 10 13 11 -2 7 -23 -8 -84 12 -108 36 -12
10 -37 20 -57 22 -19 1 -38 7 -42 12 -3 6 -13 10 -21 10 -8 0 -31 7 -50 15
-46 21 -133 49 -143 45 -5 -1 -13 5 -18 14 -5 9 -25 20 -44 23 -23 5 -33 11
-29 18 5 7 2 9 -9 5 -25 -9 -69 31 -62 57 4 15 4 17 -3 8 -7 -11 -10 -8 -14
10 -9 50 9 61 97 61 110 1 366 -49 329 -64 -15 -6 -13 -8 11 -10 17 -1 41 -1
53 0 16 1 21 -2 16 -10 -4 -8 -3 -9 5 -5 11 7 96 -19 115 -35 5 -4 15 -5 22
-2 9 3 14 -2 15 -13 0 -11 3 -14 5 -8 7 16 44 5 38 -10 -3 -7 2 -13 11 -13 8
0 15 4 15 9 0 5 20 -2 44 -16 25 -14 63 -30 85 -37 23 -7 41 -16 41 -20 0 -4
13 -10 29 -14 16 -3 35 -13 42 -21 6 -8 19 -14 29 -14 9 0 29 -9 43 -20 14
-11 30 -20 36 -20 6 0 15 -9 21 -19 5 -11 20 -23 32 -27 38 -11 50 -25 37 -40
-7 -9 -8 -14 -1 -14 6 0 12 5 14 12 3 8 12 4 25 -9 12 -12 19 -23 17 -26 -2
-2 6 -12 18 -23 l23 -19 -20 24 c-13 16 -15 22 -6 19 8 -2 19 -13 25 -23 6
-11 21 -28 34 -38 15 -12 21 -25 17 -37 -3 -10 -1 -21 5 -25 6 -3 8 -11 4 -16
-3 -5 -10 -7 -15 -4 -5 3 -6 -2 -2 -11 4 -12 3 -15 -6 -10 -6 4 -11 4 -10 -1
3 -11 -19 -63 -26 -63 -4 0 -3 5 1 12 4 7 3 8 -4 4 -7 -4 -12 -14 -12 -22 0
-8 -4 -14 -10 -14 -5 0 -10 -8 -10 -19 0 -10 -9 -30 -20 -44 -11 -14 -20 -30
-20 -36 0 -5 -6 -14 -12 -18 -7 -4 -13 -14 -14 -20 -3 -41 -5 -46 -11 -39 -6
6 -39 -66 -47 -104 -2 -8 -14 -44 -26 -80 -12 -36 -24 -83 -26 -105 -3 -22
-10 -44 -15 -49 -5 -6 -9 -33 -9 -61 0 -28 -5 -56 -12 -63 -9 -9 -9 -15 -1
-23 7 -7 8 -21 3 -40 -5 -16 -9 -32 -9 -35 1 -3 -2 -8 -5 -11 -3 -4 -7 5 -7
18 -1 16 -3 18 -6 7 -2 -10 -10 -15 -19 -11 -11 4 -12 9 -3 19 6 8 10 15 8 15
-9 3 -65 9 -86 9 -13 0 -23 6 -23 14 0 8 -6 14 -12 13 -32 -1 -49 4 -44 12 4
5 -4 7 -16 4 -19 -4 -20 -3 -8 6 13 9 12 11 -5 12 -50 4 -66 7 -73 14 -4 5 1
5 11 2 11 -4 16 -3 12 3 -3 6 -17 10 -30 10 -32 0 -56 10 -49 21 3 5 -8 9 -25
9 -24 0 -29 3 -25 18 5 14 4 15 -5 2 -9 -12 -13 -12 -19 -2 -5 7 -17 10 -28 6
-16 -5 -17 -4 -4 6 13 10 11 11 -7 7 -12 -3 -24 0 -26 6 -1 5 -10 12 -18 13
-34 7 -89 31 -83 37 4 3 -7 9 -22 12 -16 3 -47 15 -69 25 -22 11 -46 20 -52
20 -7 0 -13 4 -13 10 0 5 -8 6 -17 3 -16 -6 -16 -5 -4 10 9 11 10 17 2 17 -6
0 -11 -4 -11 -10 0 -5 -5 -10 -11 -10 -6 0 -9 7 -6 15 5 10 -4 16 -29 21 -19
3 -41 13 -49 21 -8 8 -23 16 -33 18 -24 4 -87 43 -87 52 0 5 -3 7 -7 6 -4 -2
-26 16 -50 40 -23 23 -36 33 -28 23 14 -18 14 -19 -7 -7 -13 6 -23 15 -23 20
0 4 -11 14 -25 21 -27 14 -33 35 -13 43 7 3 0 4 -15 3 -21 -2 -38 7 -65 33
-20 20 -35 39 -34 43 1 5 -5 8 -13 8 -7 0 -18 6 -22 14 -4 8 -12 15 -18 15
-13 1 -14 34 0 43 6 5 5 8 -3 8 -7 0 -15 -7 -18 -15 -4 -8 -10 -12 -15 -9 -5
3 -7 9 -4 14 3 5 -3 14 -14 20 -11 6 -19 16 -17 23 1 6 1 9 -1 5 -9 -16 -25
-7 -20 11 3 14 1 18 -9 14 -8 -3 -14 1 -14 10 0 9 -9 22 -20 30 -14 9 -18 21
-14 33 5 16 4 17 -6 4 -9 -13 -11 -12 -9 5 3 30 -12 60 -22 44 -5 -9 -13 1
-24 29 -10 23 -21 42 -26 42 -5 0 -9 6 -9 14 0 7 -7 27 -15 42 -8 16 -15 43
-16 59 -1 29 -1 29 -9 5 -7 -23 -8 -21 -15 17 -4 24 -11 40 -16 37 -9 -5 -13
12 -11 56 0 17 -1 19 -5 7 -4 -17 -7 -15 -19 8 -8 15 -14 32 -14 37 0 5 -12
34 -26 64 -15 32 -24 66 -21 79 2 14 0 22 -4 19 -5 -3 -9 0 -9 6 0 6 -3 9 -7
7 -5 -3 -9 5 -10 16 -6 52 -9 63 -25 81 -23 25 -39 105 -27 128 12 22 6 23
-15 2 -12 -11 -16 -12 -16 -2 0 7 -14 46 -30 87 -17 41 -29 80 -26 87 3 8 -1
11 -10 7 -14 -5 -18 8 -16 57 1 14 -1 19 -4 12 -9 -19 -34 5 -27 25 4 11 2 14
-5 9 -11 -7 -13 -3 -16 37 -1 6 5 11 12 9 8 -1 11 2 7 8 -3 6 -11 8 -16 5 -5
-4 -9 -1 -9 5 0 6 -5 8 -11 4 -8 -5 -10 1 -5 19 3 15 2 27 -5 29 -7 2 -7 12 0
31 6 16 15 25 21 22 5 -3 10 1 10 10 0 9 5 13 10 10 6 -3 10 0 11 7 0 7 5 2
10 -12 8 -20 12 -22 20 -10 8 13 11 13 23 -2 7 -10 17 -18 22 -18 12 -1 69
-80 78 -108 4 -12 12 -22 17 -22 5 0 18 -20 30 -44 11 -25 27 -47 36 -50 12
-5 13 -9 4 -20 -10 -11 -8 -16 7 -20 11 -4 26 -21 33 -39 7 -18 18 -35 25 -39
7 -5 10 -18 7 -30 -4 -19 -3 -20 6 -8 6 9 11 10 11 3 0 -6 3 -19 7 -29 5 -13
3 -15 -7 -9 -8 5 -11 4 -6 -3 4 -6 12 -9 19 -7 7 3 20 -9 29 -25 10 -17 13
-28 8 -25 -6 3 -10 2 -10 -4 0 -6 9 -15 21 -21 15 -8 19 -19 16 -38 -2 -15 -2
-21 0 -14 8 22 25 13 17 -10 -3 -13 -3 -20 1 -16 12 12 78 -73 65 -86 -5 -5
-10 -15 -10 -21 0 -5 4 -3 10 5 5 8 12 11 16 7 4 -3 1 -15 -7 -24 -13 -16 -12
-17 2 -5 14 10 19 8 33 -12 9 -14 16 -32 16 -41 0 -8 4 -15 10 -15 5 0 6 -7 3
-17 -5 -12 -3 -14 7 -8 10 6 12 4 7 -8 -4 -11 -2 -14 7 -11 18 7 30 -27 14
-38 -9 -5 -8 -8 6 -8 12 0 16 -5 13 -15 -4 -8 -2 -17 3 -20 4 -3 10 0 12 7 3
7 12 -3 21 -21 9 -18 14 -37 11 -42 -3 -5 -2 -8 3 -7 4 2 9 0 11 -4 1 -4 16
-22 33 -40 16 -18 39 -52 50 -75 11 -22 27 -44 35 -47 9 -3 12 -11 8 -17 -4
-7 -3 -9 3 -6 10 6 39 -18 44 -38 2 -5 9 -9 16 -7 7 2 13 -3 13 -11 0 -7 18
-26 40 -43 22 -16 38 -35 35 -42 -3 -7 5 -12 19 -12 14 0 37 -13 53 -30 29
-31 56 -42 32 -13 -13 15 -12 15 8 3 12 -8 19 -18 17 -22 -3 -4 0 -8 7 -8 17
0 102 -41 110 -53 4 -5 18 -9 33 -9 15 -1 23 -5 19 -11 -3 -5 -2 -7 3 -4 5 3
40 -1 77 -9 70 -14 219 -19 270 -9 48 10 132 69 121 86 -8 13 10 11 26 -4 12
-10 12 -9 1 6 -8 9 -15 27 -17 40 -9 61 -27 117 -35 111 -5 -3 -9 2 -9 10 0 8
-10 22 -22 30 -18 13 -19 18 -8 31 8 10 9 15 1 15 -6 0 -11 -4 -11 -10 0 -5
-5 -10 -11 -10 -5 0 -7 4 -4 10 3 6 -1 7 -9 4 -21 -8 -21 -10 15 -47 36 -37
69 -107 69 -146 0 -34 -23 -67 -61 -86 -64 -34 -277 -28 -378 10 -23 8 -59 22
-81 30 -83 31 -220 126 -313 218 -70 69 -114 125 -178 224 -120 189 -368 595
-414 678 -39 69 -150 236 -177 265 -43 46 -70 60 -113 60 -26 0 -39 -6 -51
-25z m521 -1245 c3 -5 1 -10 -4 -10 -6 0 -11 5 -11 10 0 6 2 10 4 10 3 0 8 -4
11 -10z m1815 -75 c11 -13 10 -14 -4 -9 -9 3 -16 10 -16 15 0 13 6 11 20 -6z
m-383 -839 c17 5 17 5 1 -6 -13 -8 -23 -8 -38 0 -11 6 -20 13 -20 16 0 2 9 0
19 -6 11 -5 28 -7 38 -4z"/>
<path d="M3920 2563 c0 -6 8 -17 18 -24 16 -13 16 -13 2 6 -8 11 -16 22 -17
24 -2 2 -3 0 -3 -6z"/>
<path d="M55 2489 c-4 -6 -5 -12 -2 -15 2 -3 7 2 10 11 7 17 1 20 -8 4z"/>
<path d="M2808 2493 c6 -2 18 -2 25 0 6 3 1 5 -13 5 -14 0 -19 -2 -12 -5z"/>
<path d="M2865 2457 c8 -13 12 -27 8 -30 -3 -4 -1 -7 5 -7 15 0 15 3 0 35 -6
14 -15 25 -20 25 -5 0 -2 -10 7 -23z"/>
<path d="M4824 2416 c-5 -14 -9 -15 -16 -4 -7 10 -8 10 -7 -2 3 -24 -20 -72
-31 -65 -7 4 -8 -3 -4 -22 l7 -28 -23 20 -23 20 14 -23 c12 -20 12 -24 -1 -32
-11 -7 -11 -10 -2 -10 10 0 10 -5 -2 -22 -9 -12 -16 -30 -16 -40 0 -9 -6 -21
-13 -25 -8 -4 -17 -26 -20 -48 -4 -22 -11 -41 -17 -43 -5 -2 -10 -8 -10 -13 0
-6 -9 -31 -21 -56 -12 -26 -22 -57 -24 -70 -2 -20 -19 -61 -55 -133 -4 -9 -11
-30 -14 -47 -9 -41 -34 -63 -46 -42 -6 9 -7 2 -4 -21 6 -37 -29 -150 -46 -150
-5 0 -6 -7 -3 -17 5 -12 3 -14 -7 -8 -8 5 -11 4 -6 -3 8 -14 -28 -74 -39 -64
-4 4 -5 -3 -2 -16 4 -16 -1 -29 -13 -40 -11 -8 -17 -19 -14 -24 7 -10 -26 -59
-36 -53 -5 3 -7 -2 -6 -11 1 -9 -8 -27 -21 -40 -13 -13 -23 -31 -23 -40 0 -11
-6 -15 -20 -11 -11 3 -23 0 -27 -5 -3 -7 -1 -8 5 -4 24 15 11 -11 -25 -50 -20
-21 -36 -42 -35 -46 1 -5 -2 -7 -6 -5 -5 1 -25 -14 -45 -33 -20 -19 -52 -50
-71 -68 -22 -21 -40 -31 -48 -26 -7 4 -10 3 -5 -1 10 -12 -42 -65 -64 -65 -9
0 -20 -7 -23 -16 -4 -11 -14 -15 -31 -12 -20 4 -23 3 -14 -8 9 -11 8 -18 -1
-29 -15 -19 -36 -20 -24 -2 5 7 -1 2 -12 -11 -16 -18 -28 -23 -45 -18 -13 3
-18 3 -11 0 17 -8 15 -25 -2 -18 -8 3 -17 0 -22 -7 -4 -8 -3 -10 4 -5 7 4 12
5 12 1 0 -7 -52 -29 -64 -26 -5 1 -15 -7 -23 -19 -8 -11 -23 -20 -33 -20 -28
0 -51 -11 -44 -21 3 -5 -1 -9 -9 -9 -7 0 -33 -9 -56 -21 -24 -11 -49 -18 -57
-15 -8 3 -12 1 -9 -4 3 -5 -6 -12 -20 -16 -13 -3 -22 -10 -19 -15 3 -5 -5 -9
-18 -9 -26 0 -111 -29 -88 -30 13 0 13 -2 0 -9 -8 -6 -17 -8 -20 -6 -3 2 -40
-13 -82 -33 -42 -21 -74 -34 -71 -30 2 5 -3 8 -12 8 -10 0 -13 -5 -9 -11 5 -8
-1 -10 -20 -7 -23 5 -24 3 -14 -10 11 -13 10 -15 -5 -9 -10 4 -16 3 -13 -2 7
-11 -20 -22 -37 -15 -8 3 -20 -2 -27 -11 -7 -8 -21 -15 -31 -15 -11 0 -19 -5
-19 -11 0 -6 -8 -8 -17 -5 -10 3 -25 1 -33 -5 -13 -9 -12 -10 3 -5 11 4 16 2
11 -5 -3 -6 -17 -9 -30 -6 -18 3 -22 1 -15 -7 7 -8 4 -12 -8 -13 -9 -1 -45
-20 -79 -43 -34 -22 -68 -38 -74 -34 -6 4 -8 3 -4 -4 3 -6 -3 -13 -14 -17 -11
-3 -20 -11 -20 -16 0 -5 -7 -9 -15 -9 -8 0 -15 -5 -15 -11 0 -6 -7 -9 -15 -5
-8 3 -15 1 -15 -4 0 -5 -13 -16 -30 -25 -16 -9 -30 -22 -30 -30 0 -12 -5 -12
-26 -4 -15 5 -29 7 -32 4 -3 -3 0 -5 6 -5 19 0 14 -18 -6 -24 -11 -4 -25 -19
-33 -34 -21 -42 -61 -87 -73 -84 -6 2 -8 0 -4 -3 4 -4 3 -16 -3 -26 -5 -11 -7
-19 -5 -19 3 0 48 42 100 93 179 175 361 279 836 477 58 24 242 106 300 133
172 80 372 228 545 401 129 130 175 193 258 356 40 77 157 356 157 372 0 8 4
18 9 24 5 5 20 41 34 79 38 106 110 278 162 388 25 55 44 101 41 104 -3 3 -9
-2 -12 -11z m-2309 -2276 c-10 -11 -23 -20 -28 -20 -6 0 -2 9 8 20 10 11 23
20 28 20 6 0 2 -9 -8 -20z"/>
<path d="M244 2380 c0 -13 4 -16 10 -10 7 7 7 13 0 20 -6 6 -10 3 -10 -10z"/>
<path d="M2867 2380 c-3 -11 -3 -20 -1 -20 2 0 8 9 14 20 6 11 7 20 2 20 -6 0
-12 -9 -15 -20z"/>
<path d="M3305 2349 c-11 -16 -1 -19 13 -3 7 8 8 14 3 14 -5 0 -13 -5 -16 -11z"/>
<path d="M2800 2341 c0 -5 5 -13 10 -16 6 -3 10 -2 10 4 0 5 -4 13 -10 16 -5
3 -10 2 -10 -4z"/>
<path d="M2830 2346 c0 -2 7 -6 15 -10 8 -3 15 -1 15 4 0 6 -7 10 -15 10 -8 0
-15 -2 -15 -4z"/>
<path d="M3180 2330 c-13 -8 -12 -10 3 -10 9 0 17 5 17 10 0 12 -1 12 -20 0z"/>
<path d="M3476 2323 c-6 -14 -5 -15 5 -6 7 7 10 15 7 18 -3 3 -9 -2 -12 -12z"/>
<path d="M2948 2323 c6 -2 18 -2 25 0 6 3 1 5 -13 5 -14 0 -19 -2 -12 -5z"/>
<path d="M3786 2315 c-11 -8 -15 -15 -10 -15 6 0 19 7 30 15 10 8 15 14 9 14
-5 0 -19 -6 -29 -14z"/>
<path d="M3114 2305 c-3 -8 -4 -20 -2 -27 3 -7 7 -1 10 15 6 29 1 36 -8 12z"/>
<path d="M696 2288 c-14 -54 -17 -214 -7 -356 10 -142 13 -156 42 -208 18 -30
35 -52 39 -47 37 39 68 289 51 412 -18 139 -104 275 -125 199z m27 -35 c-6
-15 -4 -16 8 -6 11 9 14 7 15 -11 1 -14 -4 -22 -15 -22 -12 0 -16 8 -15 26 2
28 2 30 9 30 2 0 1 -8 -2 -17z m46 -51 c-6 -3 -4 -13 4 -26 8 -12 18 -49 21
-81 3 -32 9 -74 12 -92 3 -18 3 -41 -1 -50 -7 -17 -8 -31 -13 -136 -1 -29 -6
-46 -12 -42 -6 4 -10 -7 -10 -26 l0 -32 -25 27 c-20 22 -24 35 -21 76 1 27 0
47 -4 45 -3 -2 -5 19 -4 47 2 37 -1 47 -8 37 -7 -10 -8 -9 -3 6 4 11 7 25 7
30 0 6 -2 38 -4 72 -2 34 -2 60 2 58 3 -2 5 17 4 41 -2 42 3 49 34 45 6 -1 12
6 12 16 0 15 2 16 10 3 6 -10 6 -16 -1 -18z"/>
<path d="M4121 2284 c-53 -67 -85 -206 -78 -334 5 -103 43 -280 58 -280 6 0
17 15 25 33 8 17 23 46 34 62 17 28 20 54 22 271 2 193 0 244 -11 257 -18 23
-26 21 -50 -9z m27 -42 c13 -9 19 -92 8 -111 -4 -6 -3 -11 3 -11 5 0 9 -20 8
-44 -1 -24 -5 -42 -9 -39 -10 5 -10 -3 1 -49 6 -23 5 -36 0 -32 -6 3 -8 -5 -5
-18 10 -42 10 -63 2 -110 -4 -27 -11 -48 -17 -48 -5 0 -8 -3 -8 -7 3 -21 -2
-26 -12 -13 -8 12 -9 10 -4 -7 3 -12 1 -24 -4 -27 -10 -6 -27 49 -22 72 1 8
-3 19 -8 26 -6 7 -10 24 -9 37 1 13 -2 44 -6 69 -5 32 -4 41 3 30 9 -12 11
-11 11 8 0 12 -4 22 -9 22 -5 0 -9 16 -9 35 0 19 3 35 7 35 3 0 6 17 7 39 1
43 22 103 34 96 4 -3 8 1 7 8 -1 46 6 55 31 39z"/>
<path d="M2886 2284 c-9 -8 -16 -21 -16 -27 0 -7 -3 -22 -6 -34 -4 -13 -2 -23
4 -23 6 0 12 16 14 36 6 70 67 72 79 3 l6 -34 2 33 c2 55 -47 82 -83 46z"/>
<path d="M3002 2290 c14 -4 32 -11 40 -16 10 -6 10 -4 -1 9 -7 9 -25 17 -40
16 l-26 -1 27 -8z"/>
<path d="M3170 2291 c0 -5 8 -7 19 -4 26 7 36 -14 17 -33 -9 -8 -16 -18 -16
-22 0 -4 10 3 22 15 18 18 19 24 8 37 -13 17 -50 22 -50 7z"/>
<path d="M3269 2283 c-13 -17 -13 -17 6 -3 11 8 22 16 24 17 2 2 0 3 -6 3 -6
0 -17 -8 -24 -17z"/>
<path d="M2820 2270 c0 -5 7 -7 15 -4 8 4 15 8 15 10 0 2 -7 4 -15 4 -8 0 -15
-4 -15 -10z"/>
<path d="M3130 2236 c0 -25 4 -47 9 -50 5 -3 8 17 8 44 -2 62 -17 67 -17 6z"/>
<path d="M2901 2218 c2 -35 3 -37 6 -13 3 17 9 36 15 43 8 9 6 12 -6 12 -12 0
-16 -9 -15 -42z"/>
<path d="M2991 2243 c0 -10 4 -27 8 -37 6 -16 9 -17 16 -6 5 9 4 15 -3 18 -7
2 -12 10 -12 18 0 9 5 12 10 9 6 -3 10 -1 10 4 0 6 -7 11 -15 11 -8 0 -15 -8
-14 -17z"/>
<path d="M3049 2238 c0 -13 -2 -33 -5 -45 -2 -13 1 -23 6 -23 6 0 10 20 10 45
0 45 -9 65 -11 23z"/>
<path d="M3216 2215 c-10 -8 -25 -11 -34 -8 -10 4 -14 3 -10 -1 11 -13 53 -13
66 0 17 18 0 25 -22 9z"/>
<path d="M2961 2184 c0 -11 3 -14 6 -6 3 7 2 16 -1 19 -3 4 -6 -2 -5 -13z"/>
<path d="M3072 2180 c0 -14 2 -19 5 -12 2 6 2 18 0 25 -3 6 -5 1 -5 -13z"/>
<path d="M2866 2175 c4 -8 8 -15 10 -15 2 0 4 7 4 15 0 8 -4 15 -10 15 -5 0
-7 -7 -4 -15z"/>
<path d="M3390 2171 c-6 -12 -7 -21 -1 -21 10 0 24 30 17 37 -2 3 -9 -5 -16
-16z"/>
<path d="M3638 2183 c7 -3 16 -2 19 1 4 3 -2 6 -13 5 -11 0 -14 -3 -6 -6z"/>
<path d="M3011 2164 c0 -11 3 -14 6 -6 3 7 2 16 -1 19 -3 4 -6 -2 -5 -13z"/>
<path d="M2931 2154 c0 -11 3 -14 6 -6 3 7 2 16 -1 19 -3 4 -6 -2 -5 -13z"/>
<path d="M4657 2129 c-8 -28 -3 -34 11 -16 6 7 7 19 3 26 -6 9 -10 6 -14 -10z"/>
<path d="M291 1914 c0 -11 3 -14 6 -6 3 7 2 16 -1 19 -3 4 -6 -2 -5 -13z"/>
<path d="M312 1820 c0 -14 2 -19 5 -12 2 6 2 18 0 25 -3 6 -5 1 -5 -13z"/>
<path d="M596 1815 c4 -8 11 -15 16 -15 6 0 5 6 -2 15 -7 8 -14 15 -16 15 -2
0 -1 -7 2 -15z"/>
<path d="M1068 1693 c7 -3 16 -2 19 1 4 3 -2 6 -13 5 -11 0 -14 -3 -6 -6z"/>
<path d="M3605 1620 c-3 -6 1 -7 9 -4 18 7 21 14 7 14 -6 0 -13 -4 -16 -10z"/>
<path d="M4411 1524 c0 -11 3 -14 6 -6 3 7 2 16 -1 19 -3 4 -6 -2 -5 -13z"/>
<path d="M4334 1374 c-1 -13 2 -21 7 -18 11 6 12 31 2 37 -5 3 -9 -6 -9 -19z"/>
<path d="M1811 1304 c0 -11 3 -14 6 -6 3 7 2 16 -1 19 -3 4 -6 -2 -5 -13z"/>
<path d="M1810 1271 c0 -6 4 -13 10 -16 6 -3 7 1 4 9 -7 18 -14 21 -14 7z"/>
<path d="M3060 1126 c0 -2 7 -9 15 -16 13 -11 14 -10 9 4 -5 14 -24 23 -24 12z"/>
<path d="M1740 1090 c-12 -7 -10 -9 7 -7 12 0 19 5 17 9 -6 10 -6 10 -24 -2z"/>
<path d="M3939 953 c-13 -15 -12 -15 9 -4 23 12 28 21 13 21 -5 0 -15 -7 -22
-17z"/>
<path d="M2300 931 c0 -6 4 -13 10 -16 6 -3 7 1 4 9 -7 18 -14 21 -14 7z"/>
<path d="M2100 811 c0 -7 -4 -9 -10 -6 -6 4 -7 -1 -3 -11 6 -15 7 -15 15 1 6
9 7 19 4 22 -3 4 -6 1 -6 -6z"/>
<path d="M3266 588 c3 -5 10 -6 15 -3 13 9 11 12 -6 12 -8 0 -12 -4 -9 -9z"/>
<path d="M3230 580 c8 -5 20 -10 25 -10 6 0 3 5 -5 10 -8 5 -19 10 -25 10 -5
0 -3 -5 5 -10z"/>
<path d="M2032 545 c0 -16 2 -22 5 -12 2 9 2 23 0 30 -3 6 -5 -1 -5 -18z"/>
<path d="M1780 510 c8 -5 20 -10 25 -10 6 0 3 5 -5 10 -8 5 -19 10 -25 10 -5
0 -3 -5 5 -10z"/>
<path d="M3047 489 c7 -7 15 -10 18 -7 3 3 -2 9 -12 12 -14 6 -15 5 -6 -5z"/>
<path d="M401 363 c-27 -5 -99 -50 -119 -73 -30 -35 -62 -117 -62 -160 0 -48
32 -130 50 -130 6 0 8 4 5 10 -12 19 -18 56 -21 127 -2 60 0 71 12 66 10 -4
12 0 7 13 -3 9 -2 15 3 12 5 -4 10 5 11 19 0 14 7 30 13 37 10 8 11 8 5 -4 -8
-13 -7 -13 8 -1 9 7 17 19 17 26 0 7 7 16 16 19 14 5 15 4 4 -9 -11 -13 -10
-14 4 -9 9 3 22 1 29 -4 10 -8 13 -6 13 7 0 12 -6 17 -16 14 -10 -3 -9 -1 3 7
11 7 47 10 92 8 66 -4 77 -8 100 -32 14 -15 25 -24 25 -20 0 3 7 1 15 -6 8 -7
15 -21 15 -31 0 -11 7 -19 15 -19 8 0 15 -5 15 -11 0 -5 -6 -7 -12 -3 -7 4 -5
-2 5 -14 11 -12 16 -26 11 -33 -4 -8 -3 -10 5 -5 8 6 11 -4 9 -33 -2 -25 -7
-40 -14 -37 -6 2 -17 0 -25 -5 -12 -8 -12 -10 1 -8 29 3 45 -1 35 -9 -17 -12
-39 -62 -31 -69 13 -13 45 40 52 85 21 141 -74 264 -213 276 -32 2 -69 2 -82
-1z"/>
<path d="M349 283 c-13 -16 -12 -17 4 -4 16 13 21 21 13 21 -2 0 -10 -8 -17
-17z"/>
<path d="M477 283 c-4 -6 -18 -9 -32 -8 -14 2 -23 -1 -20 -5 3 -5 -5 -14 -17
-21 -21 -11 -22 -11 -9 4 20 24 9 21 -25 -8 -21 -18 -31 -21 -37 -12 -6 8 -7
6 -3 -5 3 -10 1 -20 -5 -24 -6 -3 -8 -13 -5 -21 3 -8 1 -11 -4 -8 -6 3 -10 -5
-10 -19 0 -14 4 -27 9 -30 7 -5 8 -41 1 -41 -1 0 -3 -12 -4 -28 -1 -19 5 -32
21 -42 32 -22 46 -18 23 5 -24 24 -27 70 -5 70 9 0 15 -9 15 -25 0 -21 5 -25
33 -26 17 -1 38 -1 45 0 8 1 16 -6 18 -17 4 -15 16 -19 58 -20 48 -1 54 1 65
24 8 18 8 30 1 38 -7 9 -5 19 6 32 14 18 15 18 8 -6 -3 -14 -3 -22 2 -17 10
10 12 117 2 111 -4 -3 -8 2 -8 10 0 21 -37 58 -45 46 -4 -6 -14 -5 -25 2 -14
9 -16 15 -7 21 8 6 6 7 -5 3 -10 -3 -21 1 -26 11 -6 9 -12 11 -15 6z m23 -48
c0 -10 10 -15 29 -15 37 0 61 -31 61 -77 0 -26 -4 -33 -20 -33 -17 0 -20 7
-20 40 l0 41 -87 -3 -88 -3 -3 -35 c-2 -33 -1 -34 13 -16 8 10 12 23 8 29 -3
6 -1 7 5 3 9 -5 9 -13 2 -27 -6 -11 -8 -24 -5 -29 3 -5 0 -12 -6 -16 -8 -4 -9
-3 -5 4 4 7 -3 14 -19 18 -49 12 -23 104 30 104 13 0 25 7 29 15 3 9 19 15 41
15 24 0 35 -4 35 -15z m21 -82 c13 -16 12 -17 -3 -4 -17 13 -22 21 -14 21 2 0
10 -8 17 -17z m-21 -22 c21 -39 -19 -73 -60 -51 -19 10 -28 49 -13 63 14 15
63 7 73 -12z m68 -68 c13 -26 4 -43 -23 -43 -13 0 -25 6 -28 13 -6 17 11 47
28 47 8 0 18 -8 23 -17z m-74 -29 c9 -24 2 -26 -12 -4 -7 11 -8 20 -3 20 5 0
12 -7 15 -16z"/>
<path d="M356 265 c-11 -8 -15 -15 -9 -15 6 0 16 7 23 15 16 19 11 19 -14 0z"/>
<path d="M578 263 c7 -3 16 -2 19 1 4 3 -2 6 -13 5 -11 0 -14 -3 -6 -6z"/>
<path d="M626 143 c-6 -14 -5 -15 5 -6 7 7 10 15 7 18 -3 3 -9 -2 -12 -12z"/>
<path d="M2436 103 c-6 -14 -5 -15 5 -6 7 7 10 15 7 18 -3 3 -9 -2 -12 -12z"/>
<path d="M413 3 c9 -2 23 -2 30 0 6 3 -1 5 -18 5 -16 0 -22 -2 -12 -5z"/>
</g>
</svg>
